<?xml version="1.0" encoding="UTF-8" standalone="no"?><!DOCTYPE svg PUBLIC "-//W3C//DTD SVG 1.1//EN" "http://www.w3.org/Graphics/SVG/1.1/DTD/svg11.dtd"><svg width="100%" height="100%" viewBox="0 0 420 420" version="1.1" xmlns="http://www.w3.org/2000/svg" xmlns:xlink="http://www.w3.org/1999/xlink" xml:space="preserve" xmlns:serif="http://www.serif.com/" style="fill-rule:evenodd;clip-rule:evenodd;stroke-linejoin:round;stroke-miterlimit:2;"><g><g id="_Radial_Repeat_"><path d="M164.26,23.392c21.179,-27.227 60.479,-32.138 87.706,-10.958c27.227,21.179 32.138,60.479 10.958,87.706c-21.179,27.227 -60.479,32.138 -87.706,10.958c-27.227,-21.179 -32.138,-60.479 -10.958,-87.706Z"/></g><g id="_Radial_Repeat_-2_" serif:id="_Radial_Repeat_-2"><path d="M315.148,226.786c31.955,-12.99 68.445,2.408 81.435,34.363c12.99,31.955 -2.408,68.445 -34.363,81.435c-31.955,12.99 -68.445,-2.408 -81.435,-34.363c-12.99,-31.955 2.408,-68.445 34.363,-81.435Z"/></g><g id="_Radial_Repeat_-3_" serif:id="_Radial_Repeat_-3"><path d="M21.168,272.999c4.728,-34.169 36.308,-58.072 70.477,-53.343c34.169,4.728 58.072,36.308 53.343,70.477c-4.728,34.169 -36.308,58.072 -70.477,53.343c-34.169,-4.728 -58.072,-36.308 -53.343,-70.477Z"/></g></g><path d="M149.877,200.788c4.728,-34.169 36.308,-58.072 70.477,-53.343c34.169,4.728 58.072,36.308 53.343,70.477c-4.728,34.169 -36.308,58.072 -70.477,53.343c-34.169,-4.728 -58.072,-36.308 -53.343,-70.477Z"/></svg>