<svg width="1948" height="367" viewBox="0 0 1948 367" fill="none" xmlns="http://www.w3.org/2000/svg">
<path d="M232.5 213.8C231.5 218 227.4 224.3 220.2 232.7C213 240.9 205 248.2 196.2 254.6C187.4 261 179.9 264.2 173.7 264.2C163.7 264.2 156.1 261.9 150.9 257.3C145.5 252.5 141.5 245.9 138.9 237.5L169.8 197L171.3 198.5C166.1 207.1 163.5 216.9 163.5 227.9C163.5 235.9 165 242.6 168 248C171.2 253.4 175.4 256.1 180.6 256.1C184.4 256.1 187.9 254.9 191.1 252.5C194.3 249.9 197.6 244.6 201 236.6C204.4 228.4 207.9 216.5 211.5 200.9L244.5 69.5L223.2 59.3V57.5H295.8V59.3L268.8 69.5L232.5 213.8ZM311.421 263.3C299.021 263.3 289.021 259.1 281.421 250.7C274.021 242.1 270.321 229.6 270.321 213.2C270.321 205.2 271.421 195.7 273.621 184.7C278.021 165.7 284.821 149.7 294.021 136.7C303.221 123.7 312.621 114.1 322.221 107.9C332.021 101.7 339.721 98.6 345.321 98.6C357.521 98.6 367.321 102.8 374.721 111.2C382.321 119.4 386.121 131.6 386.121 147.8C386.121 156.4 384.921 166.1 382.521 176.9C378.321 195.9 371.621 211.9 362.421 224.9C353.421 237.9 344.021 247.6 334.221 254C324.621 260.2 317.021 263.3 311.421 263.3ZM320.421 250.1C328.821 250.1 336.721 245.2 344.121 235.4C351.721 225.4 357.621 208.1 361.821 183.5C362.821 177.3 363.321 170.2 363.321 162.2C363.321 146.8 360.721 134.6 355.521 125.6C350.521 116.4 343.421 111.8 334.221 111.8C326.821 111.8 319.421 116.9 312.021 127.1C304.621 137.1 298.921 154.3 294.921 178.7C293.921 184.9 293.421 192.1 293.421 200.3C293.421 215.5 295.821 227.6 300.621 236.6C305.421 245.6 312.021 250.1 320.421 250.1ZM475.77 99.8C487.17 99.8 495.47 102.6 500.67 108.2C505.87 113.8 508.27 119.9 507.87 126.5C507.67 143.5 499.37 156.7 482.97 166.1C466.57 175.3 445.87 181.9 420.87 185.9C419.87 203.3 422.57 217.7 428.97 229.1C435.37 240.5 445.67 246.2 459.87 246.2C464.27 246.2 467.97 245.7 470.97 244.7C473.97 243.5 476.87 242.1 479.67 240.5C482.47 238.7 484.57 237.4 485.97 236.6L487.47 238.4C465.87 254.8 451.37 263 443.97 263C430.57 263 419.67 258.3 411.27 248.9C403.07 239.5 398.97 226.3 398.97 209.3C398.97 199.9 400.27 190 402.87 179.6C407.27 161 413.97 145.7 422.97 133.7C432.17 121.7 441.57 113.1 451.17 107.9C460.97 102.5 469.17 99.8 475.77 99.8ZM421.17 181.4C429.97 180.2 439.07 177.8 448.47 174.2C458.07 170.4 466.27 165.1 473.07 158.3C479.87 151.5 483.27 143.1 483.27 133.1C483.27 127.5 481.87 122.7 479.07 118.7C476.27 114.5 470.97 112.4 463.17 112.4C456.17 112.4 449.07 116 441.87 123.2C434.67 130.4 428.77 143.8 424.17 163.4C422.77 168.8 421.77 174.8 421.17 181.4ZM579.368 32H579.668L523.268 245.9L569.468 218.3L570.068 219.2L560.468 228.8C549.668 239.8 540.768 248.3 533.768 254.3C526.768 260.3 521.068 263.3 516.668 263.3C513.668 263.3 511.268 261.9 509.468 259.1C507.668 256.1 506.768 250.6 506.768 242.6C506.768 237 506.968 232.5 507.368 229.1L552.668 46.7L518.468 47.6L519.068 45.8L577.868 31.4H579.668L579.368 32ZM771.954 123.5H770.454L769.254 107.6C768.054 91.6 766.954 80.9 765.954 75.5C764.954 70.1 763.254 66.7 760.854 65.3C758.654 63.7 754.254 62.9 747.654 62.9H730.254L684.054 248L705.354 258.2V260H632.754V258.2L659.754 248L705.954 62.9H688.854C682.454 62.9 677.654 63.7 674.454 65.3C671.454 66.9 668.154 70.3 664.554 75.5C661.154 80.5 655.054 90.5 646.254 105.5L635.454 123.5H633.954L650.154 57.5H788.454L771.954 123.5ZM847.547 99.8C858.947 99.8 867.247 102.6 872.447 108.2C877.647 113.8 880.047 119.9 879.647 126.5C879.447 143.5 871.147 156.7 854.747 166.1C838.347 175.3 817.647 181.9 792.647 185.9C791.647 203.3 794.347 217.7 800.747 229.1C807.147 240.5 817.447 246.2 831.647 246.2C836.047 246.2 839.747 245.7 842.747 244.7C845.747 243.5 848.647 242.1 851.447 240.5C854.247 238.7 856.347 237.4 857.747 236.6L859.247 238.4C837.647 254.8 823.147 263 815.747 263C802.347 263 791.447 258.3 783.047 248.9C774.847 239.5 770.747 226.3 770.747 209.3C770.747 199.9 772.047 190 774.647 179.6C779.047 161 785.747 145.7 794.747 133.7C803.947 121.7 813.347 113.1 822.947 107.9C832.747 102.5 840.947 99.8 847.547 99.8ZM792.947 181.4C801.747 180.2 810.847 177.8 820.247 174.2C829.847 170.4 838.047 165.1 844.847 158.3C851.647 151.5 855.047 143.1 855.047 133.1C855.047 127.5 853.647 122.7 850.847 118.7C848.047 114.5 842.747 112.4 834.947 112.4C827.947 112.4 820.847 116 813.647 123.2C806.447 130.4 800.547 143.8 795.947 163.4C794.547 168.8 793.547 174.8 792.947 181.4ZM1023.38 218L1023.98 219.2L1015.28 227.9C1003.88 239.3 994.675 248 987.675 254C980.675 260 974.975 263 970.575 263C967.575 263 965.175 261.6 963.375 258.8C961.575 256 960.675 250.6 960.675 242.6C960.675 237 960.875 232.5 961.275 229.1L987.075 157.4C990.475 147.4 992.175 139.2 992.175 132.8C992.175 127.6 991.175 123.7 989.175 121.1C987.375 118.3 985.275 116.9 982.875 116.9C974.275 116.9 963.075 130.8 949.275 158.6C935.475 186.4 921.775 220.2 908.175 260H885.375L921.375 119.6L878.475 145.4L877.875 144.2L887.175 134.9C898.575 123.5 907.675 114.9 914.475 109.1C921.475 103.1 927.075 100.1 931.275 100.1C934.275 100.1 936.675 101.6 938.475 104.6C940.275 107.4 941.175 112.8 941.175 120.8C941.175 126.4 940.975 130.9 940.575 134.3L910.575 231.5H914.175C926.175 196.7 939.675 166 954.675 139.4C969.675 112.6 984.275 99.2 998.475 99.2C1003.68 99.2 1007.98 101.2 1011.38 105.2C1014.78 109.2 1016.48 115.2 1016.48 123.2C1016.48 132.2 1014.28 142.8 1009.88 155L977.175 245.6L1023.38 218ZM1112.98 99.8C1124.38 99.8 1132.68 102.6 1137.88 108.2C1143.08 113.8 1145.48 119.9 1145.08 126.5C1144.88 143.5 1136.58 156.7 1120.18 166.1C1103.78 175.3 1083.08 181.9 1058.08 185.9C1057.08 203.3 1059.78 217.7 1066.18 229.1C1072.58 240.5 1082.88 246.2 1097.08 246.2C1101.48 246.2 1105.18 245.7 1108.18 244.7C1111.18 243.5 1114.08 242.1 1116.88 240.5C1119.68 238.7 1121.78 237.4 1123.18 236.6L1124.68 238.4C1103.08 254.8 1088.58 263 1081.18 263C1067.78 263 1056.88 258.3 1048.48 248.9C1040.28 239.5 1036.18 226.3 1036.18 209.3C1036.18 199.9 1037.48 190 1040.08 179.6C1044.48 161 1051.18 145.7 1060.18 133.7C1069.38 121.7 1078.78 113.1 1088.38 107.9C1098.18 102.5 1106.38 99.8 1112.98 99.8ZM1058.38 181.4C1067.18 180.2 1076.28 177.8 1085.68 174.2C1095.28 170.4 1103.48 165.1 1110.28 158.3C1117.08 151.5 1120.48 143.1 1120.48 133.1C1120.48 127.5 1119.08 122.7 1116.28 118.7C1113.48 114.5 1108.18 112.4 1100.38 112.4C1093.38 112.4 1086.28 116 1079.08 123.2C1071.88 130.4 1065.98 143.8 1061.38 163.4C1059.98 168.8 1058.98 174.8 1058.38 181.4ZM1288.8 218L1289.4 219.2L1280.7 227.9C1269.3 239.3 1260.1 248 1253.1 254C1246.1 260 1240.4 263 1236 263C1233 263 1230.6 261.6 1228.8 258.8C1227 256 1226.1 250.6 1226.1 242.6C1226.1 237 1226.3 232.5 1226.7 229.1L1252.5 157.4C1255.9 147.4 1257.6 139.2 1257.6 132.8C1257.6 127.6 1256.6 123.7 1254.6 121.1C1252.8 118.3 1250.7 116.9 1248.3 116.9C1239.7 116.9 1228.5 130.8 1214.7 158.6C1200.9 186.4 1187.2 220.2 1173.6 260H1150.8L1186.8 119.6L1143.9 145.4L1143.3 144.2L1152.6 134.9C1164 123.5 1173.1 114.9 1179.9 109.1C1186.9 103.1 1192.5 100.1 1196.7 100.1C1199.7 100.1 1202.1 101.6 1203.9 104.6C1205.7 107.4 1206.6 112.8 1206.6 120.8C1206.6 126.4 1206.4 130.9 1206 134.3L1176 231.5H1179.6C1191.6 196.7 1205.1 166 1220.1 139.4C1235.1 112.6 1249.7 99.2 1263.9 99.2C1269.1 99.2 1273.4 101.2 1276.8 105.2C1280.2 109.2 1281.9 115.2 1281.9 123.2C1281.9 132.2 1279.7 142.8 1275.3 155L1242.6 245.6L1288.8 218ZM1396.18 101.3C1404.38 101.3 1410.38 104.3 1414.18 110.3C1418.18 116.1 1420.18 124.2 1420.18 134.6C1420.18 151 1416.38 169.4 1408.78 189.8C1401.18 210.2 1390.98 227.6 1378.18 242C1365.58 256.2 1352.08 263.3 1337.68 263.3C1329.28 263.3 1321.48 261.9 1314.28 259.1C1307.08 256.1 1301.48 251.8 1297.48 246.2L1346.38 46.7L1312.18 47.6L1312.78 45.8L1371.58 31.4H1373.38L1372.78 32.6L1320.28 233.6H1323.88C1334.08 201 1342.48 175.9 1349.08 158.3C1355.88 140.7 1363.08 126.8 1370.68 116.6C1378.28 106.4 1386.78 101.3 1396.18 101.3ZM1347.88 255.8C1356.28 255.8 1364.18 249.4 1371.58 236.6C1378.98 223.6 1384.88 208.1 1389.28 190.1C1393.88 172.1 1396.18 156.4 1396.18 143C1396.18 135.4 1395.08 129.5 1392.88 125.3C1390.88 120.9 1387.78 118.7 1383.58 118.7C1379.38 118.7 1375.18 121.4 1370.98 126.8C1366.98 132 1361.38 143.5 1354.18 161.3C1347.18 179.1 1337.78 206.1 1325.98 242.3C1328.38 246.9 1331.48 250.3 1335.28 252.5C1339.28 254.7 1343.48 255.8 1347.88 255.8ZM1507.9 99.8C1519.3 99.8 1527.6 102.6 1532.8 108.2C1538 113.8 1540.4 119.9 1540 126.5C1539.8 143.5 1531.5 156.7 1515.1 166.1C1498.7 175.3 1478 181.9 1453 185.9C1452 203.3 1454.7 217.7 1461.1 229.1C1467.5 240.5 1477.8 246.2 1492 246.2C1496.4 246.2 1500.1 245.7 1503.1 244.7C1506.1 243.5 1509 242.1 1511.8 240.5C1514.6 238.7 1516.7 237.4 1518.1 236.6L1519.6 238.4C1498 254.8 1483.5 263 1476.1 263C1462.7 263 1451.8 258.3 1443.4 248.9C1435.2 239.5 1431.1 226.3 1431.1 209.3C1431.1 199.9 1432.4 190 1435 179.6C1439.4 161 1446.1 145.7 1455.1 133.7C1464.3 121.7 1473.7 113.1 1483.3 107.9C1493.1 102.5 1501.3 99.8 1507.9 99.8ZM1453.3 181.4C1462.1 180.2 1471.2 177.8 1480.6 174.2C1490.2 170.4 1498.4 165.1 1505.2 158.3C1512 151.5 1515.4 143.1 1515.4 133.1C1515.4 127.5 1514 122.7 1511.2 118.7C1508.4 114.5 1503.1 112.4 1495.3 112.4C1488.3 112.4 1481.2 116 1474 123.2C1466.8 130.4 1460.9 143.8 1456.3 163.4C1454.9 168.8 1453.9 174.8 1453.3 181.4ZM1678.63 112.1C1677.03 113.3 1674.03 116.1 1669.63 120.5C1665.43 124.7 1662.03 127.9 1659.43 130.1C1656.83 132.3 1654.83 133.4 1653.43 133.4C1651.43 133.4 1648.33 131.5 1644.13 127.7C1639.33 123.7 1635.83 121.7 1633.63 121.7C1627.83 121.7 1618.93 135.3 1606.93 162.5C1594.93 189.7 1582.83 222.2 1570.63 260H1547.83L1581.13 119.9L1538.83 145.4L1538.23 144.2L1547.53 134.9C1558.93 123.5 1568.03 114.9 1574.83 109.1C1581.83 103.1 1587.43 100.1 1591.63 100.1C1594.63 100.1 1597.03 101.6 1598.83 104.6C1600.63 107.4 1601.53 112.8 1601.53 120.8C1601.53 126.4 1601.33 130.9 1600.93 134.3L1573.03 231.5H1576.63C1587.23 197.5 1598.33 167.2 1609.93 140.6C1621.73 113.8 1631.63 100.4 1639.63 100.4C1640.83 100.4 1642.23 100.9 1643.83 101.9C1645.43 102.9 1646.73 103.9 1647.73 104.9C1648.93 105.9 1649.83 106.6 1650.43 107C1653.63 109.8 1656.43 112 1658.83 113.6C1661.43 115.2 1663.83 116 1666.03 116C1669.23 116 1673.23 114.3 1678.03 110.9L1678.63 112.1ZM1784.16 95.3L1785.36 95.6L1773.66 131.6L1745.46 236C1738.06 264.4 1725.06 287.7 1706.46 305.9C1687.86 324.1 1663.26 334.3 1632.66 336.5L1637.46 314.6L1638.66 313.7C1647.66 314.5 1656.36 314.9 1664.76 314.9C1678.16 314.9 1688.06 312.9 1694.46 308.9C1700.86 305.1 1705.76 299 1709.16 290.6C1712.56 282.2 1717.26 266.9 1723.26 244.7L1753.56 131H1749.96C1739.76 163.8 1731.36 189 1724.76 206.6C1718.16 224 1711.06 237.8 1703.46 248C1695.86 258.2 1687.26 263.3 1677.66 263.3C1669.46 263.3 1663.36 260.4 1659.36 254.6C1655.56 248.6 1653.66 240.4 1653.66 230C1653.66 213.6 1657.46 195.2 1665.06 174.8C1672.66 154.4 1682.76 137.1 1695.36 122.9C1708.16 108.5 1721.76 101.3 1736.16 101.3C1747.36 101.3 1757.06 103.7 1765.26 108.5L1784.16 95.3ZM1690.26 245.9C1694.46 245.9 1698.56 243.3 1702.56 238.1C1706.76 232.7 1712.36 221.1 1719.36 203.3C1726.56 185.5 1736.06 158.5 1747.86 122.3C1745.46 117.7 1742.26 114.3 1738.26 112.1C1734.46 109.9 1730.36 108.8 1725.96 108.8C1717.56 108.8 1709.66 115.3 1702.26 128.3C1694.86 141.1 1688.86 156.5 1684.26 174.5C1679.86 192.5 1677.66 208.2 1677.66 221.6C1677.66 229.2 1678.66 235.2 1680.66 239.6C1682.86 243.8 1686.06 245.9 1690.26 245.9Z" fill="black"/>
</svg>
